<?xml version="1.0" encoding="UTF-8"?>
<svg width="26px" height="21px" viewBox="0 0 26 21" version="1.1" xmlns="http://www.w3.org/2000/svg" xmlns:xlink="http://www.w3.org/1999/xlink">
    <title>Mask</title>
    <defs>
        <path d="M51.7812657,50.8 L28.2187343,50.8 C27.5454891,50.8 27,50.2628605 27,49.6000166 L27,34.8919188 C27,34.2294195 27.5454891,33.6919354 28.2187343,33.6919354 L33.4238428,33.6919354 L35.3757421,30.4785292 C35.5983202,30.1894824 35.9470361,30 36.3437753,30 L43.6562247,30 C43.9985987,30 44.3064642,30.140217 44.528255,30.363677 L44.529086,30.3625143 L46.598813,33.6919354 L51.7812657,33.6919354 C52.4545109,33.6919354 53,34.2294195 53,34.8919188 L53,49.6000166 C53,50.2628605 52.4545109,50.8 51.7812657,50.8 M40.0000219,36.1532257 C36.4444581,36.1532257 33.5622707,38.9914137 33.5622707,42.4919288 C33.5622707,45.9928315 36.4444581,48.8306319 40.0000219,48.8306319 C43.5555856,48.8306319 46.437773,45.9928315 46.437773,42.4919288 C46.437773,38.9914137 43.5555856,36.1532257 40.0000219,36.1532257 M40.0000219,46.1603511 C37.9424975,46.1603511 36.2743208,44.517754 36.2743208,42.4919288 C36.2743208,40.465759 37.9424975,38.8235495 40.0000219,38.8235495 C42.0578087,38.8235495 43.725723,40.465759 43.725723,42.4919288 C43.725723,44.517754 42.0578087,46.1603511 40.0000219,46.1603511" id="path-1"></path>
    </defs>
    <g id="Admin-Light-#1" stroke="none" stroke-width="1" fill="none" fill-rule="evenodd">
        <g id="Dashboard--#-30" transform="translate(-813.000000, -279.000000)">
            <g id="Form" transform="translate(270.000000, 189.000000)">
                <g transform="translate(180.000000, 60.000000)" id="Add-Image">
                    <g transform="translate(329.000000, 0.000000)">
                        <g id="Image" transform="translate(7.000000, 0.000000)">
                            <mask id="mask-2" fill="white">
                                <use xlink:href="#path-1"></use>
                            </mask>
                            <use id="Mask" fill="#414141" fill-rule="nonzero" xlink:href="#path-1"></use>
                        </g>
                    </g>
                </g>
            </g>
        </g>
    </g>
</svg>