<?xml version="1.0" encoding="UTF-8"?>
<svg width="20px" height="20px" viewBox="0 0 20 20" version="1.1" xmlns="http://www.w3.org/2000/svg" xmlns:xlink="http://www.w3.org/1999/xlink">
    <g id="Symbols" stroke="none" stroke-width="1" fill="none" fill-rule="evenodd">
        <g id="Component/Menu/Side-Menu" transform="translate(-22.000000, -16.000000)" fill="#000000">
            <g id="Icon-&amp;-Text" transform="translate(20.000000, 14.000000)">
                <g id="Component/icon/ic_Dashboard">
                    <path d="M6,12 L7,12 C9.209139,12 11,13.790861 11,16 L11,18 C11,20.209139 9.209139,22 7,22 L6,22 C3.790861,22 2,20.209139 2,18 L2,16 C2,13.790861 3.790861,12 6,12 Z M6,14 C4.8954305,14 4,14.8954305 4,16 L4,18 C4,19.1045695 4.8954305,20 6,20 L7,20 C8.1045695,20 9,19.1045695 9,18 L9,16 C9,14.8954305 8.1045695,14 7,14 L6,14 Z M5.5,2 C7.43299662,2 9,3.56700338 9,5.5 L9,6.5 C9,8.43299662 7.43299662,10 5.5,10 C3.56700338,10 2,8.43299662 2,6.5 L2,5.5 C2,3.56700338 3.56700338,2 5.5,2 Z M5.5,4 C4.67157288,4 4,4.67157288 4,5.5 L4,6.5 C4,7.32842712 4.67157288,8 5.5,8 C6.32842712,8 7,7.32842712 7,6.5 L7,5.5 C7,4.67157288 6.32842712,4 5.5,4 Z M17,11 L18,11 C20.209139,11 22,12.790861 22,15 L22,18 C22,20.209139 20.209139,22 18,22 L17,22 C14.790861,22 13,20.209139 13,18 L13,15 C13,12.790861 14.790861,11 17,11 Z M17,13 C15.8954305,13 15,13.8954305 15,15 L15,18 C15,19.1045695 15.8954305,20 17,20 L18,20 C19.1045695,20 20,19.1045695 20,18 L20,15 C20,13.8954305 19.1045695,13 18,13 L17,13 Z M14.5,2 L18.5,2 C20.4329966,2 22,3.56700338 22,5.5 C22,7.43299662 20.4329966,9 18.5,9 L14.5,9 C12.5670034,9 11,7.43299662 11,5.5 C11,3.56700338 12.5670034,2 14.5,2 Z M14.5,4 C13.6715729,4 13,4.67157288 13,5.5 C13,6.32842712 13.6715729,7 14.5,7 L18.5,7 C19.3284271,7 20,6.32842712 20,5.5 C20,4.67157288 19.3284271,4 18.5,4 L14.5,4 Z" id="Shape"></path>
                </g>
            </g>
        </g>
    </g>
</svg>