<?xml version="1.0" encoding="UTF-8"?>
<svg width="135px" height="24px" viewBox="0 0 135 24" version="1.1" xmlns="http://www.w3.org/2000/svg" xmlns:xlink="http://www.w3.org/1999/xlink">
    <!-- Generator: Sketch 60.1 (88133) - https://sketch.com -->
    <title>logo_hori</title>
    <desc>Created with Sketch.</desc>
    <defs>
        <rect id="path-1" x="0" y="0" width="135" height="24"></rect>
    </defs>
    <g id="Web-Designs" stroke="none" stroke-width="1" fill="none" fill-rule="evenodd">
        <g id="Icon-sets-Copy" transform="translate(-409.000000, -395.000000)">
            <g id="logo_hori" transform="translate(409.000000, 395.000000)">
                <mask id="mask-2" fill="white">
                    <use xlink:href="#path-1"></use>
                </mask>
                <use id="Rectangle" fill-opacity="0.0533763112" fill="#FFFFFF" xlink:href="#path-1"></use>
                <path d="M25.036252,0 C24.5036304,0 24.0714502,0.442565702 24.0700068,0.989468967 C24.0778113,5.84393282 22.6875638,10.5923906 20.0740983,14.6376877 C19.2238172,14.2455646 18.4118839,13.7710896 17.6493202,13.2207036 C20.0036941,9.63247179 21.2568882,5.40213394 21.247209,1.07550975 C21.247209,0.529041126 20.8157786,0.0860407797 20.2835823,0.0860407797 C19.751386,0.0860407797 19.3199556,0.529041126 19.3199556,1.07550975 C19.326219,4.94696995 18.2214533,8.73451486 16.1436535,11.9650459 C15.4056054,11.2598356 14.7420596,10.4766544 14.1640291,9.62850101 C15.6541735,7.03792503 16.440007,4.08421547 16.4395497,1.07550975 C16.4395497,0.529041126 16.0081194,0.0860407797 15.4759231,0.0860407797 C14.9437267,0.0860407797 14.5122964,0.529041126 14.5122964,1.07550975 C14.5107081,3.35262116 14.0000703,5.59896944 13.0197224,7.64149675 C12.0469462,5.59696759 11.5426631,3.35099215 11.5454783,1.07550975 C11.5454783,0.529041126 11.1140479,0.0860407797 10.5818516,0.0860407797 C10.0496553,0.0860407797 9.61822492,0.529041126 9.61822492,1.07550975 C9.59339073,7.56106278 13.2150866,13.4791311 18.9166988,16.2697737 C18.2998629,17.0713442 17.6361456,17.8336732 16.9292187,18.5525431 C10.632766,15.1245362 6.70759109,8.39332993 6.73781905,1.07550975 C6.71106509,0.548337132 6.28698397,0.134984175 5.77288308,0.134984175 C5.25878218,0.134984175 4.83470107,0.548337132 4.80794711,1.07550975 C4.7767315,8.8756654 8.83526626,16.0897343 15.4314077,19.9587721 C14.6354119,20.6407704 13.7974891,21.2694508 12.922836,21.8409142 C6.04854114,17.2979956 1.90442476,9.46966963 1.93015978,1.07550975 C1.90340583,0.548337132 1.47932471,0.134984175 0.965223815,0.134984175 C0.451122921,0.134984175 0.0270418027,0.548337132 0.00028784671,1.07550975 C-0.0299483849,10.3820715 4.68312273,19.0268143 12.4253114,23.8655613 C12.4253114,23.8655613 12.4253114,23.8655613 12.4436412,23.8655613 C12.4881258,23.8908915 12.5345393,23.9124726 12.5824244,23.9300919 C12.6155496,23.9458639 12.6496673,23.959338 12.6845479,23.9704235 L12.7264447,23.9704235 C12.7923356,23.9881466 12.859985,23.99807 12.9280731,24 C13.1026616,23.9975186 13.273467,23.9474083 13.4229792,23.8548062 C16.5883037,21.8864673 19.3140954,19.2552347 21.4226519,16.1326462 C24.4143917,11.6812073 26.0113122,6.39799735 26,0.989468967 C26,0.443000346 25.5684483,0 25.036252,0 Z" id="Veriown-Shield-Copy-4" fill="#5F259F" fill-rule="nonzero" mask="url(#mask-2)"></path>
                <text id="veriown" mask="url(#mask-2)" font-family="Helvetica" font-size="28" font-weight="normal" fill="#5F259F">
                    <tspan x="34.2587891" y="20">veriown</tspan>
                </text>
            </g>
        </g>
    </g>
</svg>