<?xml version="1.0" encoding="UTF-8"?>
<svg width="19px" height="19px" viewBox="0 0 19 19" version="1.1" xmlns="http://www.w3.org/2000/svg" xmlns:xlink="http://www.w3.org/1999/xlink">
    <g id="Symbols" stroke="none" stroke-width="1" fill="none" fill-rule="evenodd">
        <g id="Component/Menu/Side-Menu" transform="translate(-22.000000, -16.000000)" fill="#000000">
            <g id="Icon-&amp;-Text" transform="translate(20.000000, 14.000000)">
                <g id="Component/icon/ic_Edit">
                    <path d="M17.8609615,7.59610325 L18.9757174,6.48134736 L16.5186526,4.02428259 L15.4038968,5.13903847 L17.8609615,7.59610325 Z M16.4541876,9.00287717 L13.9971228,6.5458124 L4.80565292,15.7372823 L4.24013801,18.759862 L7.26271769,18.1943471 L16.4541876,9.00287717 L16.4541876,9.00287717 Z M20.4419052,5.13398729 C21.1860316,5.87811371 21.1860316,7.08458102 20.4419052,7.82870744 L8.45173906,19.8188736 C8.30989153,19.9607211 8.12847146,20.0563677 7.93129027,20.0932596 L3.17815536,20.9825558 C2.49083247,21.1111517 1.88884828,20.5091675 2.01744417,19.8218446 L2.90674038,15.0687097 C2.94363235,14.8715285 3.03927891,14.6901085 3.18112643,14.5482609 L15.1712926,2.55809482 C15.915419,1.81396839 17.1218863,1.81396839 17.8660127,2.55809482 L20.4419052,5.13398729 Z M20.009901,21 L11.990099,21 C10.669967,21 10.669967,19 11.990099,19 L20.009901,19 C21.330033,19 21.330033,21 20.009901,21 Z" id="Shape"></path>
                </g>
            </g>
        </g>
    </g>
</svg>