<?xml version="1.0" encoding="UTF-8"?>
<svg width="156px" height="73px" viewBox="0 0 156 73" version="1.1" xmlns="http://www.w3.org/2000/svg" xmlns:xlink="http://www.w3.org/1999/xlink">
    <title>veriown logo</title>
    <g id="Web-Designs" stroke="none" stroke-width="1" fill="none" fill-rule="evenodd">
        <g id="Icon-sets-Copy" transform="translate(-235.000000, -135.000000)" fill-rule="nonzero">
            <g id="full_logo" transform="translate(49.000000, 135.000000)">
                <g id="Veriown-Logo-Copy" transform="translate(186.000000, 0.000000)">
                    <path d="M99.2950008,0 C98.3526629,0 97.5880303,0.774489978 97.5854766,1.73157069 C97.5992848,10.2268824 95.1395967,18.5366835 90.5157369,25.6159534 C89.0113818,24.929738 87.5748732,24.0994067 86.2257114,23.1362312 C90.3911748,16.8568256 92.6083817,9.45373439 92.5912568,1.88214206 C92.5912568,0.92582197 91.827951,0.150571365 90.8863655,0.150571365 C89.94478,0.150571365 89.1814741,0.92582197 89.1814741,1.88214206 C89.1925556,8.65719741 87.2379547,15.285401 83.5618187,20.9388304 C82.2560311,19.7047123 81.0820563,18.3341452 80.0593789,16.8498768 C82.6958089,12.3163688 84.0861406,7.14737708 84.0853315,1.88214206 C84.0853315,0.92582197 83.3220257,0.150571365 82.3804402,0.150571365 C81.4388547,0.150571365 80.6755489,0.92582197 80.6755489,1.88214206 C80.6727388,5.86708703 79.7692956,9.79819652 78.0348204,13.3726193 C76.3137413,9.79469328 75.4215412,5.86423627 75.426522,1.88214206 C75.426522,0.92582197 74.6632161,0.150571365 73.7216306,0.150571365 C72.7800451,0.150571365 72.0167393,0.92582197 72.0167393,1.88214206 C71.9728015,13.2318599 78.3804675,23.5884794 88.4680142,28.472104 C87.3766806,29.8748524 86.2024023,31.208928 84.9516758,32.4669505 C73.8117107,26.4679383 66.867116,14.6883274 66.9205967,1.88214206 C66.8732624,0.959589981 66.1229592,0.236222306 65.2133889,0.236222306 C64.3038187,0.236222306 63.5535154,0.959589981 63.5061811,1.88214206 C63.4509531,15.5324145 70.6314939,28.1570351 82.3016816,34.9278512 C80.8933704,36.1213483 79.4108799,37.221539 77.8634047,38.2215998 C65.7010955,30.2714923 58.3691398,16.5719219 58.4146714,1.88214206 C58.3673371,0.959589981 57.6170339,0.236222306 56.7074636,0.236222306 C55.7978934,0.236222306 55.0475901,0.959589981 55,1.88214206 C54.9467606,18.1686251 63.2853363,33.2969251 76.9831619,41.7647322 C76.9831619,41.7647322 76.9831619,41.7647322 77.0155919,41.7647322 C77.094296,41.8090602 77.1764128,41.846827 77.2611333,41.8776608 C77.3197399,41.9052618 77.3801024,41.9288415 77.4418147,41.9482411 L77.5159404,41.9482411 C77.6325175,41.9792565 77.7522059,41.9966224 77.8726704,42 C78.1815601,41.9956575 78.4837567,41.9079645 78.7482804,41.7459108 L78.7482804,41.7459108 C84.3485137,38.3013178 89.1711059,33.6966608 92.9016582,28.2321309 C98.1947779,20.4421128 101.020121,11.1964954 101,1.73157069 C101,0.775250606 100.236586,0 99.2950008,0 Z" id="Shape" fill="#5F259F"></path>
                    <path d="M11.513842,73 L9.51451722,73 L0,52 L2.36326806,52 L10.209318,69.4071618 C10.2628789,69.526855 10.3834175,69.6041379 10.5165429,69.6041379 C10.6496682,69.6041379 10.7702069,69.526855 10.8237677,69.4071618 L18.6650912,52 L21,52 L11.513842,73 Z" id="Shape" fill="#60269E"></path>
                    <polygon id="Shape" fill="#60269E" points="28.1097158 61.2586667 38.8155981 61.2586667 38.8155981 63.2326667 28.1097158 63.2326667 28.1097158 71.054 40 71.054 40 73 26 73 26 52 40 52 40 53.946 28.1097158 53.946"></polygon>
                    <path d="M49.0947459,65.5305445 L49.0947459,73 L47,73 L47,52 L54.4510479,52 C58.9575079,52 62.0812518,54.4727756 62.0812518,58.4654714 C62.0812518,61.7749004 59.8992248,64.0431607 56.5687626,64.7264276 L63,73 L60.3815676,73 L54.2535171,65.1215139 C54.1393298,64.984231 53.9714718,64.9044046 53.794143,64.9030544 L49.7240884,64.9030544 C49.557657,64.8992783 49.3968102,64.9638701 49.2782335,65.0820978 C49.1596568,65.2003254 49.0934617,65.3621072 49.0947459,65.5305445 Z M54.3959231,62.9648288 C57.6620729,62.9648288 59.9910996,61.2682603 59.9910996,58.4654714 C59.9910996,55.6626826 57.6620729,53.938247 54.3959231,53.938247 L49.6046512,53.938247 C49.3230383,53.938247 49.0947248,54.1692395 49.0947248,54.4541833 L49.0947248,62.4488712 C49.0935074,62.5860863 49.1468316,62.7180461 49.2427272,62.8150759 C49.3386227,62.9121057 49.46904,62.9660606 49.6046512,62.9648288 L54.3959231,62.9648288 Z" id="Shape" fill="#60269E"></path>
                    <polygon id="Shape" fill="#60269E" points="71 73 69 73 69 52 71 52"></polygon>
                    <path d="M99,61.5 C99,67.2989935 94.2989772,72 88.5,72 C82.7010065,72 78,67.2989935 78,61.5 C78,55.7010228 82.7010065,51 88.5,51 C91.286269,50.9950936 93.9598442,52.0997587 95.9300427,54.0699573 C97.9002413,56.0401558 99.0049064,58.713731 99,61.5 Z M96.8629809,61.5000082 C96.7740073,56.8975239 92.9878817,53.2291921 88.3848841,53.2856816 C83.7818865,53.3421711 80.0869256,57.1023132 80.1108119,61.7055949 C80.1349307,66.3088765 83.8689021,70.0302825 88.4722385,70.038768 C90.7195837,70.0266108 92.8692052,69.1183346 94.4443871,67.5153655 C96.0195691,65.9123964 96.8901203,63.7472224 96.8629809,61.5000082 Z" id="Shape" fill="#60269E"></path>
                    <path d="M125.143197,73 L123.078338,73 L117.504599,55.7207488 L111.903267,73 L109.870599,73 L103,52 L105.189026,52 L110.748969,68.9563183 C110.764663,69.0155534 110.817452,69.056709 110.877735,69.056709 C110.938019,69.056709 110.990808,69.0155534 111.006502,68.9563183 L116.598636,52 L118.438154,52 L124.002696,68.9282371 C124.020899,68.9835748 124.071821,69.0208769 124.129163,69.0208769 C124.186504,69.0208769 124.237427,68.9835748 124.25563,68.9282371 L129.820171,52 L132,52 L125.161592,72.9391576 L125.143197,73 Z" id="Shape" fill="#60269E"></path>
                    <path d="M155.98619,72.9813167 L154.190902,72.9813167 L141.59166,56.4699733 C141.515423,56.3753544 141.388851,56.3394833 141.275327,56.3803232 C141.161803,56.421163 141.085767,56.5299213 141.085297,56.6521352 L141.085297,73 L139,73 L139,52 L140.740049,52 L153.399133,68.0676157 C153.47537,68.1622345 153.601942,68.1981056 153.715466,68.1572658 C153.828991,68.1164259 153.905026,68.0076677 153.905497,67.8854537 L153.905497,52.0046708 L156,52.0046708 L155.98619,72.9813167 Z" id="Shape" fill="#60269E"></path>
                </g>
            </g>
        </g>
    </g>
</svg>